P3
100 50
255
0 0 0 0 0 0 0 0 0 0 0 0 0 0 0 0 0 0 0 0 0 0 0 0 0 0 0 0 0 0 0 0 0 0 0
0 0 0 0 0 0 0 0 0 0 0 0 0 0 0 0 0 0 0 0 0 0 0 0 0 0 0 0 0 0 0 0 0 0 0
0 0 0 0 0 0 0 0 0 0 0 0 0 0 0 0 0 0 0 0 0 0 0 0 0 0 0 0 0 0 0 0 0 0 0
0 0 0 0 0 0 0 0 0 0 0 0 0 0 0 0 0 0 0 0 0 0 0 0 0 0 0 0 0 0 0 0 0 0 0
0 0 0 0 0 0 0 0 0 0 0 0 0 0 0 0 0 0 0 0 0 0 0 0 0 0 0 0 0 0 0 0 0 0 0
0 0 0 0 0 0 0 0 0 0 0 0 0 0 0 0 0 0 0 0 0 0 0 0 0 0 0 0 0 0 0 0 0 0 0
0 0 0 0 0 0 0 0 0 0 0 0 0 0 0 0 0 0 0 0 0 0 0 0 0 0 0 0 0 0 0 0 0 0 0
0 0 0 0 0 0 0 0 0 0 0 0 0 0 0 0 0 0 0 0 0 0 0 0 0 0 0 0 0 0 0 0 0 0 0
0 0 0 0 0 0 0 0 0 0 0 0 0 0 0 0 0 0 0 0
0 0 0 0 0 0 0 0 0 0 0 0 0 0 0 0 0 0 0 0 0 0 0 0 0 0 0 0 0 0 0 0 0 0 0
0 0 0 0 0 0 0 0 0 0 0 0 0 0 0 0 0 0 0 0 0 0 0 0 0 0 0 0 0 0 0 0 0 0 0
0 0 0 0 0 0 0 0 0 0 0 0 0 0 0 0 0 0 0 0 0 0 0 0 0 0 0 0 0 0 0 0 0 0 0
0 0 0 0 0 0 0 0 0 0 0 0 0 0 0 0 0 0 0 0 0 0 0 0 0 0 0 0 0 0 0 0 0 0 0
0 0 0 0 0 0 0 0 0 0 0 0 0 0 0 0 0 0 0 0 0 0 0 0 0 0 0 0 0 0 0 0 0 0 0
0 0 0 0 0 0 0 0 0 0 0 0 0 0 0 0 0 0 0 0 0 0 0 0 0 0 0 0 0 0 0 0 0 0 0
0 0 0 0 0 0 0 0 0 0 0 0 0 0 0 0 0 0 0 0 0 0 0 0 0 0 0 0 0 0 0 0 0 0 0
0 0 0 0 0 0 0 0 0 0 0 0 0 0 0 0 0 0 0 0 0 0 0 0 0 0 0 0 0 0 0 0 0 0 0
0 0 0 0 0 0 0 0 0 0 0 0 0 0 0 0 0 0 0 0
0 0 0 0 0 0 0 0 0 0 0 0 0 0 0 0 0 0 0 0 0 0 0 0 0 0 0 0 0 0 0 0 0 0 0
0 0 0 0 0 0 0 0 0 0 0 0 0 0 0 0 0 0 0 0 0 0 0 0 0 0 0 0 0 0 0 0 0 0 0
0 0 0 0 0 0 0 0 0 0 0 0 0 0 0 0 0 0 0 0 0 0 0 0 0 0 0 0 0 0 0 0 0 0 0
0 0 0 0 0 0 0 0 0 0 0 0 0 0 0 0 0 0 0 0 0 0 0 0 0 0 0 0 0 0 0 0 0 0 0
0 0 0 0 0 0 0 0 0 0 0 0 0 0 0 0 0 0 0 0 0 0 0 0 0 0 0 0 0 0 0 0 0 0 0
0 0 0 0 0 0 0 0 0 0 0 0 0 0 0 0 0 0 0 0 0 0 0 0 0 0 0 0 0 0 0 0 0 0 0
0 0 0 0 0 0 0 0 0 0 0 0 0 0 0 0 0 0 0 0 0 0 0 0 0 0 0 0 0 0 0 0 0 0 0
0 0 0 0 0 0 0 0 0 0 0 0 0 0 0 0 0 0 0 0 0 0 0 0 0 0 0 0 0 0 0 0 0 0 0
0 0 0 0 0 0 0 0 0 0 0 0 0 0 0 0 0 0 0 0
0 0 0 0 0 0 0 0 0 0 0 0 0 0 0 0 0 0 0 0 0 0 0 0 0 0 0 0 0 0 0 0 0 0 0
0 0 0 0 0 0 0 0 0 0 0 0 0 0 0 0 0 0 0 0 0 0 0 0 0 0 0 0 0 0 0 0 0 0 0
0 0 0 0 0 0 0 0 0 0 0 0 0 0 0 0 0 0 0 0 0 0 0 0 0 0 0 0 0 0 0 0 0 0 0
0 0 0 0 0 0 0 0 0 0 0 0 0 0 0 0 0 0 0 0 0 0 0 0 0 0 0 0 0 0 0 0 0 0 0
0 0 0 0 0 0 0 0 0 0 0 0 0 0 0 0 0 0 0 0 0 0 0 0 0 0 0 0 0 0 0 0 0 0 0
0 0 0 0 0 0 0 0 0 0 0 0 0 0 0 0 0 0 0 0 0 0 0 0 0 0 0 0 0 0 0 0 0 0 0
0 0 0 0 0 0 0 0 0 0 0 0 0 0 0 0 0 0 0 0 0 0 0 0 0 0 0 0 0 0 0 0 0 0 0
0 0 0 0 0 0 0 0 0 0 0 0 0 0 0 0 0 0 0 0 0 0 0 0 0 0 0 0 0 0 0 0 0 0 0
0 0 0 0 0 0 0 0 0 0 0 0 0 0 0 0 0 0 0 0
0 0 0 0 0 0 0 0 0 0 0 0 0 0 0 0 0 0 0 0 0 0 0 0 0 0 0 0 0 0 0 0 0 0 0
0 0 0 0 0 0 0 0 0 0 0 0 0 0 0 0 0 0 0 0 0 0 0 0 0 0 0 0 0 0 0 0 0 0 0
0 0 0 0 0 0 0 0 0 0 0 0 0 0 0 0 0 0 0 0 0 0 0 0 0 0 0 0 0 0 0 0 0 0 0
0 0 0 0 0 0 0 0 0 0 0 0 0 0 0 0 0 0 0 0 0 0 0 0 0 0 0 0 0 0 0 0 0 0 0
0 0 0 0 0 0 0 0 0 0 0 0 0 0 0 0 0 0 0 0 0 0 0 0 0 0 0 0 0 0 0 0 0 0 0
0 0 0 0 0 0 0 0 0 0 0 0 0 0 0 0 0 0 0 0 0 0 0 0 0 0 0 0 0 0 0 0 0 0 0
0 0 0 0 0 0 0 0 0 0 0 0 0 0 0 0 0 0 0 0 0 0 0 0 0 0 0 0 0 0 0 0 0 0 0
0 0 0 0 0 0 0 0 0 0 0 0 0 0 0 0 0 0 0 0 0 0 0 0 0 0 0 0 0 0 0 0 0 0 0
0 0 0 0 0 0 0 0 0 0 0 0 0 0 0 0 0 0 0 0
0 0 0 0 0 0 0 0 0 0 0 0 0 0 0 0 0 0 0 0 0 0 0 0 0 0 0 0 0 0 0 0 0 0 0
0 0 0 0 0 0 0 0 0 0 0 0 0 0 0 0 0 0 0 0 0 0 0 0 0 0 0 0 0 0 0 0 0 0 0
0 0 0 0 0 0 0 0 0 0 0 0 0 0 0 0 0 0 0 0 0 0 0 0 0 0 0 0 0 0 0 0 0 0 0
0 0 0 0 0 0 0 0 0 0 0 0 0 0 0 0 0 0 0 0 0 0 0 0 0 0 0 0 0 0 0 0 0 0 0
0 0 0 0 0 0 0 0 0 0 0 0 0 0 0 0 0 0 0 0 0 0 0 0 0 0 0 0 0 0 0 0 0 0 0
0 0 0 0 0 0 0 0 0 0 0 0 0 0 0 0 0 0 0 0 0 0 0 0 0 0 0 0 0 0 0 0 0 0 0
0 0 0 0 0 0 0 0 0 0 0 0 0 0 0 0 0 0 0 0 0 0 0 0 0 0 0 0 0 0 0 0 0 0 0
0 0 0 0 0 0 0 0 0 0 0 0 0 0 0 0 0 0 0 0 0 0 0 0 0 0 0 0 0 0 0 0 0 0 0
0 0 0 0 0 0 0 0 0 0 0 0 0 0 0 0 0 0 0 0
0 0 0 0 0 0 0 0 0 0 0 0 0 0 0 0 0 0 0 0 0 0 0 0 0 0 0 0 0 0 0 0 0 0 0
0 0 0 0 0 0 0 0 0 0 0 0 0 0 0 0 0 0 0 0 0 0 0 0 0 0 0 0 0 0 0 0 0 0 0
0 0 0 0 0 0 0 0 0 0 0 0 0 0 0 0 0 0 0 0 0 0 0 0 0 0 0 0 0 0 0 0 0 0 0
0 0 0 0 0 0 0 0 0 0 0 0 0 0 0 0 0 0 0 0 0 0 0 0 0 0 0 0 0 0 0 0 0 0 0
0 0 0 0 0 0 0 0 0 0 0 0 0 0 0 0 0 0 0 0 0 0 0 0 0 0 0 0 0 0 0 0 0 0 0
0 0 0 0 0 0 0 0 0 0 0 0 0 0 0 0 0 0 0 0 0 0 0 0 0 0 0 0 0 0 0 0 0 0 0
0 0 0 0 0 0 0 0 0 0 0 0 0 0 0 0 0 0 0 0 0 0 0 0 0 0 0 0 0 0 0 0 0 0 0
0 0 0 0 0 0 0 0 0 0 0 0 0 0 0 0 0 0 0 0 0 0 0 0 0 0 0 0 0 0 0 0 0 0 0
0 0 0 0 0 0 0 0 0 0 0 0 0 0 0 0 0 0 0 0
0 0 0 0 0 0 0 0 0 0 0 0 0 0 0 0 0 0 0 0 0 0 0 0 0 0 0 0 0 0 0 0 0 0 0
0 0 0 0 0 0 0 0 0 0 0 0 0 0 0 0 0 0 0 0 0 0 0 0 0 0 0 0 0 0 0 0 0 0 0
0 0 0 0 0 0 0 0 0 0 0 0 0 0 0 0 0 0 0 0 0 0 0 0 0 0 0 0 0 0 0 0 0 0 0
0 0 0 0 0 0 0 0 0 0 0 0 0 0 0 0 0 0 0 0 0 0 0 0 0 0 0 0 0 0 0 0 0 0 0
0 0 0 0 0 0 0 0 0 0 0 0 0 0 0 0 0 0 0 0 0 0 0 0 0 0 0 0 0 0 0 0 0 0 0
0 0 0 0 0 0 0 0 0 0 0 0 0 0 0 0 0 0 0 0 0 0 0 0 0 0 0 0 0 0 0 0 0 0 0
0 0 0 0 0 0 0 0 0 0 0 0 0 0 0 0 0 0 0 0 0 0 0 0 0 0 0 0 0 0 0 0 0 0 0
0 0 0 0 0 0 0 0 0 0 0 0 0 0 0 0 0 0 0 0 0 0 0 0 0 0 0 0 0 0 0 0 0 0 0
0 0 0 0 0 0 0 0 0 0 0 0 0 0 0 0 0 0 0 0
0 0 0 0 0 0 0 0 0 0 0 0 0 0 0 0 0 0 0 0 0 0 0 0 0 0 0 0 0 0 0 0 0 0 0
0 0 0 0 0 0 0 0 0 0 0 0 0 0 0 0 0 0 0 0 0 0 0 0 0 0 0 0 0 0 0 0 0 0 0
0 0 0 0 0 0 0 0 0 0 0 0 0 0 0 0 0 0 0 0 0 0 0 0 0 0 0 0 0 0 0 0 0 0 0
0 0 0 0 0 0 0 0 0 0 0 0 0 0 0 14 144 72 14 140 70 13 132 66 12 122 61
0 0 0 0 0 0 0 0 0 0 0 0 0 0 0 0 0 0 0 0 0 0 0 0 0 0 0 0 0 0 0 0 0 0 0
0 0 0 0 0 0 0 0 0 0 0 0 0 0 0 0 0 0 0 0 0 0 0 0 0 0 0 0 0 0 0 0 0 0 0
0 0 0 0 0 0 0 0 0 0 0 0 0 0 0 0 0 0 0 0 0 0 0 0 0 0 0 0 0 0 0 0 0 0 0
0 0 0 0 0 0 0 0 0 0 0 0 0 0 0 0 0 0 0 0 0 0 0 0 0 0 0 0 0 0 0 0 0 0 0
0 0 0 0 0 0 0 0 0 0 0 0 0 0 0 0 0 0 0 0 0 0 0 0 0 0 0 0
0 0 0 0 0 0 0 0 0 0 0 0 0 0 0 0 0 0 0 0 0 0 0 0 0 0 0 0 0 0 0 0 0 0 0
0 0 0 0 0 0 0 0 0 0 0 0 0 0 0 0 0 0 0 0 0 0 0 0 0 0 0 0 0 0 0 0 0 0 0
0 0 0 0 0 0 0 0 0 0 0 0 0 0 0 0 0 0 0 0 0 0 0 0 0 0 0 0 0 0 0 0 0 0 0
0 0 0 17 171 86 17 173 86 17 170 85 17 166 83 16 161 81 16 155 78 15
148 74 14 140 70 13 131 66 12 121 60 11 108 54 9 91 46 0 0 0 0 0 0 0
0 0 0 0 0 0 0 0 0 0 0 0 0 0 0 0 0 0 0 0 0 0 0 0 0 0 0 0 0 0 0 0 0 0 0
0 0 0 0 0 0 0 0 0 0 0 0 0 0 0 0 0 0 0 0 0 0 0 0 0 0 0 0 0 0 0 0 0 0 0
0 0 0 0 0 0 0 0 0 0 0 0 0 0 0 0 0 0 0 0 0 0 0 0 0 0 0 0 0 0 0 0 0 0 0
0 0 0 0 0 0 0 0 0 0 0 0 0 0 0 0 0 0 0 0 0 0 0 0 0 0 0 0 0 0 0 0 0 0 0
0 0 0 0 0 0 0 0 0
0 0 0 0 0 0 0 0 0 0 0 0 0 0 0 0 0 0 0 0 0 0 0 0 0 0 0 0 0 0 0 0 0 0 0
0 0 0 0 0 0 0 0 0 0 0 0 0 0 0 0 0 0 0 0 0 0 0 0 0 0 0 0 0 0 0 0 0 0 0
0 0 0 0 0 0 0 0 0 0 0 0 0 0 0 0 0 0 0 0 0 0 0 0 0 0 0 0 0 0 0 0 18
183 92 19 185 93 18 184 92 18 181 91 18 177 89 17 173 86 17 167 84 16
161 80 15 154 77 15 147 73 14 138 69 13 129 65 12 119 60 11 108 54 9
94 47 7 75 37 0 0 0 0 0 0 0 0 0 0 0 0 0 0 0 0 0 0 0 0 0 0 0 0 0 0 0 0
0 0 0 0 0 0 0 0 0 0 0 0 0 0 0 0 0 0 0 0 0 0 0 0 0 0 0 0 0 0 0 0 0 0 0
0 0 0 0 0 0 0 0 0 0 0 0 0 0 0 0 0 0 0 0 0 0 0 0 0 0 0 0 0 0 0 0 0 0 0
0 0 0 0 0 0 0 0 0 0 0 0 0 0 0 0 0 0 0 0 0 0 0 0 0 0 0 0 0 0 0 0 0 0 0
0 0 0 0 0 0 0 0 0 0 0 0 0 0 0 0 0
0 0 0 0 0 0 0 0 0 0 0 0 0 0 0 0 0 0 0 0 0 0 0 0 0 0 0 0 0 0 0 0 0 0 0
0 0 0 0 0 0 0 0 0 0 0 0 0 0 0 0 0 0 0 0 0 0 0 0 0 0 0 0 0 0 0 0 0 0 0
0 0 0 0 0 0 0 0 0 0 0 0 0 0 0 0 0 0 0 0 0 0 0 0 0 0 18 184 92 19 192
96 19 193 97 19 192 96 19 189 94 19 185 93 18 181 90 18 176 88 17 170
85 16 164 82 16 157 78 15 150 75 14 142 71 13 133 67 12 124 62 11 114
57 10 102 51 9 89 44 7 72 36 0 0 0 0 0 0 0 0 0 0 0 0 0 0 0 0 0 0 0 0
0 0 0 0 0 0 0 0 0 0 0 0 0 0 0 0 0 0 0 0 0 0 0 0 0 0 0 0 0 0 0 0 0 0 0
0 0 0 0 0 0 0 0 0 0 0 0 0 0 0 0 0 0 0 0 0 0 0 0 0 0 0 0 0 0 0 0 0 0 0
0 0 0 0 0 0 0 0 0 0 0 0 0 0 0 0 0 0 0 0 0 0 0 0 0 0 0 0 0 0 0 0 0 0 0
0 0 0 0 0 0 0 0 0 0 0 0 0 0 0 0 0 0 0 0 0 0
0 0 0 0 0 0 0 0 0 0 0 0 0 0 0 0 0 0 0 0 0 0 0 0 0 0 0 0 0 0 0 0 0 0 0
0 0 0 0 0 0 0 0 0 0 0 0 0 0 0 0 0 0 0 0 0 0 0 0 0 0 0 0 0 0 0 0 0 0 0
0 0 0 0 0 0 0 0 0 0 0 0 0 0 0 0 0 0 0 0 0 0 0 19 191 96 20 197 99 20
198 99 20 197 98 19 194 97 19 191 95 19 187 93 18 182 91 18 177 88 17
171 86 16 165 82 16 158 79 15 151 76 14 143 72 14 135 68 13 126 63 12
117 58 11 106 53 9 95 47 8 81 41 6 65 32 4 39 20 0 0 0 0 0 0 0 0 0 0
0 0 0 0 0 0 0 0 0 0 0 0 0 0 0 0 0 0 0 0 0 0 0 0 0 0 0 0 0 0 0 0 0 0 0
0 0 0 0 0 0 0 0 0 0 0 0 0 0 0 0 0 0 0 0 0 0 0 0 0 0 0 0 0 0 0 0 0 0 0
0 0 0 0 0 0 0 0 0 0 0 0 0 0 0 0 0 0 0 0 0 0 0 0 0 0 0 0 0 0 0 0 0 0 0
0 0 0 0 0 0 0 0 0 0 0 0 0 0 0 0 0 0 0 0 0 0 0 0 0 0
0 0 0 0 0 0 0 0 0 0 0 0 0 0 0 0 0 0 0 0 0 0 0 0 0 0 0 0 0 0 0 0 0 0 0
0 0 0 0 0 0 0 0 0 0 0 0 0 0 0 0 0 0 0 0 0 0 0 0 0 0 0 0 0 0 0 0 0 0 0
0 0 0 0 0 0 0 0 0 0 0 0 0 0 0 0 0 0 0 0 19 193 97 20 200 100 20 201
101 20 200 100 20 198 99 20 195 98 19 191 96 19 187 93 18 182 91 18
177 88 17 171 86 16 165 82 16 158 79 15 151 76 14 144 72 14 136 68 13
127 64 12 118 59 11 108 54 10 97 49 9 85 43 7 71 36 5 54 27 3 28 14 0
0 0 0 0 0 0 0 0 0 0 0 0 0 0 0 0 0 0 0 0 0 0 0 0 0 0 0 0 0 0 0 0 0 0 0
0 0 0 0 0 0 0 0 0 0 0 0 0 0 0 0 0 0 0 0 0 0 0 0 0 0 0 0 0 0 0 0 0 0 0
0 0 0 0 0 0 0 0 0 0 0 0 0 0 0 0 0 0 0 0 0 0 0 0 0 0 0 0 0 0 0 0 0 0 0
0 0 0 0 0 0 0 0 0 0 0 0 0 0 0 0 0 0 0 0 0 0 0 0 0 0 0 0 0 0 0 0
0 0 0 0 0 0 0 0 0 0 0 0 0 0 0 0 0 0 0 0 0 0 0 0 0 0 0 0 0 0 0 0 0 0 0
0 0 0 0 0 0 0 0 0 0 0 0 0 0 0 0 0 0 0 0 0 0 0 0 0 0 0 0 0 0 0 0 0 0 0
0 0 0 0 0 0 0 0 0 0 0 0 0 0 0 0 0 19 191 96 20 201 101 20 203 102 20
203 101 20 201 100 20 198 99 19 195 97 19 191 95 19 186 93 18 181 91
18 176 88 17 170 85 16 164 82 16 158 79 15 151 75 14 143 72 14 136 68
13 127 64 12 118 59 11 109 54 10 99 49 9 87 44 7 75 37 6 60 30 4 42
21 3 26 13 0 0 0 0 0 0 0 0 0 0 0 0 0 0 0 0 0 0 0 0 0 0 0 0 0 0 0 0 0
0 0 0 0 0 0 0 0 0 0 0 0 0 0 0 0 0 0 0 0 0 0 0 0 0 0 0 0 0 0 0 0 0 0 0
0 0 0 0 0 0 0 0 0 0 0 0 0 0 0 0 0 0 0 0 0 0 0 0 0 0 0 0 0 0 0 0 0 0 0
0 0 0 0 0 0 0 0 0 0 0 0 0 0 0 0 0 0 0 0 0 0 0 0 0 0 0 0 0 0 0 0 0 0 0
0
0 0 0 0 0 0 0 0 0 0 0 0 0 0 0 0 0 0 0 0 0 0 0 0 0 0 0 0 0 0 0 0 0 0 0
0 0 0 0 0 0 0 0 0 0 0 0 0 0 0 0 0 0 0 0 0 0 0 0 0 0 0 0 0 0 0 0 0 0 0
0 0 0 0 0 0 0 0 0 0 0 0 0 0 0 0 0 20 200 100 20 204 102 20 204 102 20
203 101 20 200 100 20 197 99 19 194 97 19 190 95 18 185 92 18 180 90
17 175 87 17 169 84 16 163 81 16 156 78 15 149 75 14 142 71 13 135 67
13 126 63 12 118 59 11 109 54 10 99 49 9 88 44 8 76 38 6 63 31 5 47
23 3 26 13 0 0 0 0 0 0 0 0 0 0 0 0 0 0 0 0 0 0 0 0 0 0 0 0 0 0 0 0 0
0 0 0 0 0 0 0 0 0 0 0 0 0 0 0 0 0 0 0 0 0 0 0 0 0 0 0 0 0 0 0 0 0 0 0
0 0 0 0 0 0 0 0 0 0 0 0 0 0 0 0 0 0 0 0 0 0 0 0 0 0 0 0 0 0 0 0 0 0 0
0 0 0 0 0 0 0 0 0 0 0 0 0 0 0 0 0 0 0 0 0 0 0 0 0 0 0 0 0 0 0 0 0 0 0
0
27 25 25 27 25 25 27 25 25 27 25 25 27 25 25 27 25 25 27 25 25 27 25
25 27 25 25 27 25 25 27 25 25 27 25 25 27 25 25 27 25 25 27 25 25 27
25 25 27 25 25 27 25 25 27 25 25 27 25 25 27 25 25 27 25 25 27 25 25
27 25 25 27 25 25 27 25 25 27 25 25 27 25 25 20 196 98 20 202 101 20
204 102 20 203 102 20 202 101 20 199 99 20 196 98 19 192 96 19 188 94
18 183 92 18 178 89 17 173 86 17 167 83 16 161 80 15 154 77 15 148 74
14 140 70 13 133 66 12 125 62 12 116 58 11 107 54 10 98 49 9 87 44 8
76 38 6 63 32 5 49 24 3 31 16 3 26 13 28 25 25 28 25 25 28 25 25 28
25 25 28 25 25 28 25 25 28 25 25 28 25 25 28 25 25 28 25 25 28 25 25
28 25 25 28 25 25 27 25 25 27 25 25 27 25 25 27 25 25 27 25 25 27 25
25 27 25 25 27 25 25 27 25 25 27 25 25 27 25 25 27 25 25 27 25 25 27
25 25 27 25 25 27 25 25 27 25 25 27 25 25 27 25 25 27 25 25 27 25 25
27 25 25 27 25 25 27 25 25 27 25 25 27 25 25 27 25 25 27 25 25 27 25
25 27 25 25 27 25 25
43 38 38 43 38 38 43 38 38 43 38 38 43 39 39 43 39 39 43 39 39 43 39
39 43 39 39 43 39 39 43 39 39 43 39 39 43 39 39 43 39 39 43 39 39 44
39 39 44 39 39 44 39 39 44 39 39 44 39 39 44 39 39 44 39 39 44 39 39
44 40 40 44 40 40 44 40 40 44 40 40 18 181 90 20 199 99 20 202 101 20
203 101 20 202 101 20 200 100 20 197 98 19 193 97 19 190 95 19 185 93
18 181 90 18 176 88 17 170 85 16 164 82 16 158 79 15 152 76 15 145 73
14 138 69 13 131 65 12 123 61 11 115 57 11 106 53 10 96 48 9 86 43 8
75 38 6 63 32 5 49 25 3 33 17 3 26 13 44 40 40 44 40 40 44 40 40 44
40 40 44 40 40 44 40 40 44 39 39 44 39 39 44 39 39 44 39 39 44 39 39
44 39 39 44 39 39 44 39 39 43 39 39 43 39 39 43 39 39 43 39 39 43 39
39 43 39 39 43 39 39 43 39 39 43 39 39 43 39 39 43 39 39 43 38 38 43
38 38 43 38 38 43 38 38 42 38 38 42 38 38 42 38 38 42 38 38 42 38 38
42 38 38 42 38 38 42 38 38 42 38 38 42 38 38 42 38 38 42 37 37 42 37
37 41 37 37 41 37 37
57 52 52 58 52 52 58 52 52 58 52 52 58 52 52 58 52 52 58 52 52 58 52
52 58 52 52 58 53 53 58 53 53 59 53 53 59 53 53 59 53 53 59 53 53 59
53 53 59 53 53 59 53 53 59 53 53 59 53 53 59 53 53 59 53 53 59 53 53
59 53 53 59 53 53 59 53 53 59 54 54 19 191 96 20 199 99 20 201 100 20
201 100 20 199 100 20 197 99 19 194 97 19 191 95 25 193 100 34 198
107 19 179 91 17 173 86 17 167 84 16 162 81 16 156 78 15 149 75 14
143 71 14 136 68 13 128 64 12 120 60 11 112 56 10 103 52 9 94 47 8 84
42 7 74 37 6 62 31 5 49 24 3 34 17 3 26 13 3 26 13 59 53 53 59 53 53
59 53 53 59 53 53 58 53 53 58 53 53 58 52 52 58 52 52 58 52 52 58 52
52 58 52 52 58 52 52 58 52 52 58 52 52 57 52 52 57 52 52 57 51 51 57
51 51 57 51 51 57 51 51 57 51 51 57 51 51 56 51 51 56 51 51 56 51 51
56 50 50 56 50 50 56 50 50 56 50 50 56 50 50 55 50 50 55 50 50 55 50
50 55 50 50 55 49 49 55 49 49 55 49 49 55 49 49 54 49 49 54 49 49 54
49 49 54 49 49 54 48 48
72 64 64 72 65 65 72 65 65 72 65 65 72 65 65 72 65 65 72 65 65 72 65
65 72 65 65 73 65 65 73 65 65 73 65 65 73 66 66 73 66 66 73 66 66 73
66 66 73 66 66 73 66 66 73 66 66 73 66 66 73 66 66 73 66 66 73 66 66
73 66 66 73 66 66 73 66 66 74 66 66 19 192 96 20 197 99 20 199 99 20
198 99 20 197 98 19 194 97 19 191 96 20 189 95 66 231 139 74 235 145
21 178 90 17 170 85 16 164 82 16 158 79 15 152 76 15 146 73 14 140 70
13 133 66 13 125 63 12 117 59 11 109 55 10 101 50 9 92 46 8 82 41 7
71 36 6 60 30 5 47 24 3 33 16 3 26 13 3 26 13 72 65 65 72 64 64 71 64
64 71 64 64 71 64 64 71 64 64 71 64 64 71 64 64 71 64 64 70 63 63 70
63 63 70 63 63 70 63 63 70 63 63 70 63 63 70 63 63 69 62 62 69 62 62
69 62 62 69 62 62 69 62 62 68 62 62 68 61 61 68 61 61 68 61 61 68 61
61 68 61 61 67 61 61 67 61 61 67 60 60 67 60 60 67 60 60 67 60 60 66
60 60 66 60 60 66 59 59 66 59 59 66 59 59 65 59 59 65 59 59 65 59 59
65 58 58 65 58 58
85 76 76 85 76 76 85 76 76 85 77 77 85 77 77 85 77 77 85 77 77 85 77
77 85 77 77 86 77 77 86 77 77 86 77 77 86 77 77 86 77 77 86 77 77 86
77 77 86 77 77 86 77 77 86 77 77 86 77 77 86 77 77 86 77 77 86 77 77
86 77 77 86 77 77 86 77 77 18 175 88 19 191 95 19 195 97 20 196 98 19
195 97 19 193 97 19 191 95 19 188 94 20 185 93 36 199 109 29 188 100
17 171 86 17 166 83 16 161 80 15 155 77 15 149 74 14 143 71 14 136 68
13 129 65 12 122 61 11 114 57 11 106 53 10 98 49 9 89 44 8 79 39 7 68
34 6 57 29 4 45 22 3 31 15 3 26 13 3 26 13 83 75 75 83 74 74 83 74 74
82 74 74 82 74 74 82 74 74 82 74 74 82 73 73 81 73 73 81 73 73 81 73
73 81 73 73 81 73 73 80 72 72 80 72 72 80 72 72 80 72 72 80 72 72 79
71 71 79 71 71 79 71 71 79 71 71 79 71 71 78 71 71 78 70 70 78 70 70
78 70 70 77 70 70 77 70 70 77 69 69 77 69 69 77 69 69 76 69 69 76 69
69 76 68 68 76 68 68 75 68 68 75 68 68 75 68 68 75 67 67 75 67 67 74
67 67 74 67 67
97 87 87 97 87 87 97 87 87 97 87 87 97 87 87 97 87 87 97 87 87 97 87
87 97 87 87 97 87 87 97 87 87 97 88 88 97 88 88 97 88 88 97 88 88 97
88 88 97 88 88 97 88 88 97 88 88 97 88 88 97 88 88 97 87 87 97 87 87
97 87 87 97 87 87 97 87 87 18 178 89 19 188 94 19 191 96 19 192 96 19
191 96 19 189 95 19 187 93 18 184 92 18 180 90 18 177 89 17 172 86 17
167 84 16 162 81 16 157 78 15 151 76 15 145 73 14 139 69 13 132 66 13
125 63 12 118 59 11 111 55 10 103 51 9 94 47 9 85 43 8 75 38 7 65 33
5 54 27 4 42 21 3 28 14 3 26 13 3 26 13 3 26 13 92 83 83 92 83 83 92
83 83 92 83 83 92 82 82 91 82 82 91 82 82 91 82 82 91 82 82 90 81 81
90 81 81 90 81 81 90 81 81 89 80 80 89 80 80 89 80 80 89 80 80 88 80
80 88 79 79 88 79 79 88 79 79 87 79 79 87 79 79 87 78 78 87 78 78 86
78 78 86 78 78 86 77 77 86 77 77 85 77 77 85 77 77 85 76 76 85 76 76
84 76 76 84 76 76 84 76 76 84 75 75 83 75 75 83 75 75 83 75 75 83 74
74 82 74 74
107 96 96 107 96 96 107 96 96 107 97 97 107 97 97 107 97 97 107 97 97
107 97 97 107 97 97 107 97 97 107 97 97 107 97 97 107 97 97 107 97 97
107 97 97 107 97 97 107 96 96 107 96 96 107 96 96 107 96 96 107 96 96
107 96 96 107 96 96 107 96 96 107 96 96 107 96 96 18 176 88 18 185 92
19 187 94 19 188 94 19 187 94 19 185 93 18 183 91 18 180 90 18 176 88
17 172 86 17 168 84 16 163 81 16 158 79 15 153 76 15 147 73 14 141 71
13 135 67 13 128 64 12 121 61 11 114 57 11 107 53 10 99 49 9 90 45 8
81 41 7 72 36 6 61 31 5 50 25 4 38 19 3 26 13 3 26 13 3 26 13 3 26 13
101 91 91 100 90 90 100 90 90 100 90 90 100 90 90 99 89 89 99 89 89
99 89 89 99 89 89 98 89 89 98 88 88 98 88 88 98 88 88 97 88 88 97 87
87 97 87 87 97 87 87 96 87 87 96 86 86 96 86 86 95 86 86 95 86 86 95
85 85 95 85 85 94 85 85 94 85 85 94 84 84 94 84 84 93 84 84 93 84 84
93 83 83 92 83 83 92 83 83 92 83 83 92 82 82 91 82 82 91 82 82 91 82
82 91 81 81 90 81 81 90 81 81 90 81 81
116 105 105 116 105 105 116 105 105 116 105 105 116 105 105 116 105
105 116 105 105 116 105 105 116 105 105 116 105 105 116 105 105 116
105 105 116 104 104 116 104 104 116 104 104 116 104 104 116 104 104
116 104 104 116 104 104 115 104 104 115 104 104 115 104 104 115 104
104 115 104 104 115 103 103 115 103 103 17 172 86 18 180 90 18 183 91
18 183 92 18 182 91 18 181 90 18 178 89 17 175 87 17 171 86 17 167 84
16 163 82 16 158 79 15 153 77 15 148 74 14 142 71 14 137 68 13 130 65
12 124 62 12 117 58 11 110 55 10 102 51 9 94 47 9 86 43 8 77 38 7 67
34 6 57 29 5 46 23 3 34 17 3 26 13 3 26 13 3 26 13 3 26 13 108 97 97
108 97 97 107 97 97 107 96 96 107 96 96 106 96 96 106 96 96 106 95 95
106 95 95 105 95 95 105 95 95 105 94 94 105 94 94 104 94 94 104 94 94
104 93 93 103 93 93 103 93 93 103 93 93 103 92 92 102 92 92 102 92 92
102 91 91 101 91 91 101 91 91 101 91 91 100 90 90 100 90 90 100 90 90
100 90 90 99 89 89 99 89 89 99 89 89 98 89 89 98 88 88 98 88 88 98 88
88 97 88 88 97 87 87 97 87 87 96 87 87 96 86 86
124 112 112 124 112 112 124 112 112 124 112 112 124 112 112 124 112
112 124 112 112 124 112 112 124 112 112 124 111 111 124 111 111 124
111 111 124 111 111 123 111 111 123 111 111 123 111 111 123 111 111
123 111 111 123 111 111 123 110 110 123 110 110 122 110 110 122 110
110 122 110 110 122 110 110 122 110 110 17 167 83 18 175 88 18 178 89
18 178 89 18 177 89 18 176 88 17 173 87 17 170 85 17 166 83 16 163 81
16 158 79 15 154 77 15 149 74 14 143 72 14 138 69 13 132 66 13 126 63
12 119 60 11 112 56 11 105 53 10 98 49 9 90 45 8 81 41 7 72 36 6 63
31 5 53 26 4 42 21 3 29 15 3 26 13 3 26 13 3 26 13 3 26 13 114 103
103 114 102 102 113 102 102 113 102 102 113 102 102 113 101 101 112
101 101 112 101 101 112 101 101 111 100 100 111 100 100 111 100 100
111 99 99 110 99 99 110 99 99 110 99 99 109 98 98 109 98 98 109 98 98
108 98 98 108 97 97 108 97 97 107 97 97 107 96 96 107 96 96 107 96 96
106 96 96 106 95 95 106 95 95 105 95 95 105 95 95 105 94 94 104 94 94
104 94 94 104 93 93 104 93 93 103 93 93 103 93 93 103 92 92 102 92 92
102 92 92 102 92 92
131 118 118 131 118 118 131 118 118 131 118 118 131 118 118 131 118
118 131 118 118 131 118 118 131 117 117 130 117 117 130 117 117 130
117 117 130 117 117 130 117 117 130 117 117 130 117 117 129 117 117
129 116 116 129 116 116 129 116 116 129 116 116 129 116 116 128 116
116 128 115 115 128 115 115 128 115 115 16 160 80 17 169 85 17 172 86
17 173 86 17 172 86 17 170 85 17 168 84 16 165 82 16 161 81 16 157 79
15 153 77 15 148 74 14 143 72 14 138 69 13 133 66 13 127 63 12 121 60
11 114 57 11 107 54 10 100 50 9 92 46 8 85 42 8 76 38 7 67 34 6 58 29
5 47 24 4 36 18 3 26 13 3 26 13 3 26 13 3 26 13 3 26 13 119 107 107
119 107 107 119 107 107 118 107 107 118 106 106 118 106 106 118 106
106 117 106 106 117 105 105 117 105 105 116 105 105 116 104 104 116
104 104 115 104 104 115 104 104 115 103 103 115 103 103 114 103 103
114 102 102 114 102 102 113 102 102 113 102 102 113 101 101 112 101
101 112 101 101 112 101 101 111 100 100 111 100 100 111 100 100 110
99 99 110 99 99 110 99 99 110 99 99 109 98 98 109 98 98 109 98 98 108
97 97 108 97 97 108 97 97 107 97 97 107 96 96 107 96 96
137 123 123 137 123 123 137 123 123 137 123 123 137 123 123 137 123
123 136 123 123 136 123 123 136 123 123 136 122 122 136 122 122 136
122 122 136 122 122 135 122 122 135 122 122 135 122 122 135 121 121
135 121 121 134 121 121 134 121 121 134 121 121 134 121 121 134 120
120 133 120 120 133 120 120 133 120 120 15 152 76 16 162 81 17 166 83
17 166 83 17 166 83 16 164 82 16 162 81 16 159 80 16 156 78 15 152 76
15 148 74 14 143 71 14 138 69 13 133 66 13 127 64 12 121 61 12 115 58
11 109 54 10 102 51 9 95 47 9 87 44 8 79 40 7 71 35 6 62 31 5 52 26 4
42 21 3 31 15 3 26 13 3 26 13 3 26 13 3 26 13 3 26 13 124 112 112 124
111 111 123 111 111 123 111 111 123 111 111 123 110 110 122 110 110
122 110 110 122 109 109 121 109 109 121 109 109 121 109 109 120 108
108 120 108 108 120 108 108 119 107 107 119 107 107 77 154 15 79 158
16 77 155 15 74 148 15 68 137 14 60 121 12 47 94 9 117 105 105 116
105 105 116 104 104 116 104 104 115 104 104 115 103 103 115 103 103
114 103 103 114 103 103 114 102 102 113 102 102 113 102 102 113 101
101 112 101 101 112 101 101 112 101 101 112 100 100 111 100 100
142 128 128 142 128 128 142 128 128 142 128 128 142 128 128 142 127
127 141 127 127 141 127 127 141 127 127 141 127 127 141 127 127 141
126 126 140 126 126 140 126 126 140 126 126 140 126 126 140 126 126
139 125 125 139 125 125 139 125 125 139 125 125 138 125 125 138 124
124 138 124 124 138 124 124 137 124 124 14 140 70 15 154 77 16 158 79
16 160 80 16 159 80 16 158 79 16 156 78 15 153 76 15 150 75 15 146 73
14 142 71 14 137 69 13 132 66 13 127 64 12 122 61 12 116 58 11 109 55
10 103 51 10 96 48 9 89 44 8 81 41 7 73 37 6 65 32 6 56 28 5 46 23 4
36 18 3 26 13 3 26 13 3 26 13 3 26 13 3 26 13 3 26 13 128 115 115 128
115 115 128 115 115 127 115 115 127 114 114 127 114 114 126 114 114
126 113 113 126 113 113 125 113 113 125 113 113 125 112 112 124 112
112 124 112 112 124 111 111 86 171 17 90 180 18 91 181 18 90 179 18
87 174 17 84 167 17 79 157 16 73 145 15 65 130 13 55 110 11 39 79 8
120 108 108 120 108 108 119 107 107 119 107 107 119 107 107 118 107
107 118 106 106 118 106 106 117 106 106 117 105 105 117 105 105 116
105 105 116 105 105 116 104 104 116 104 104 115 104 104
147 132 132 146 132 132 146 132 132 146 132 132 146 131 131 146 131
131 146 131 131 145 131 131 145 131 131 145 131 131 145 130 130 145
130 130 144 130 130 144 130 130 144 130 130 144 129 129 144 129 129
143 129 129 143 129 129 143 129 129 143 128 128 142 128 128 142 128
128 142 128 128 142 127 127 141 127 127 141 127 127 15 145 73 15 151
75 15 152 76 15 152 76 15 151 76 15 149 75 15 146 73 14 143 72 14 140
70 14 135 68 13 131 65 13 126 63 12 121 60 12 115 58 11 110 55 10 103
52 10 97 48 9 90 45 8 83 41 8 75 38 7 67 34 6 59 29 5 49 25 4 40 20 3
29 15 3 26 13 3 26 13 3 26 13 3 26 13 3 26 13 132 119 119 132 119 119
131 118 118 131 118 118 131 118 118 131 117 117 130 117 117 130 117
117 130 117 117 129 116 116 129 116 116 129 116 116 128 115 115 128
115 115 76 151 15 91 183 18 96 191 19 97 194 19 96 193 19 95 189 19
92 184 18 88 176 18 84 167 17 78 156 16 72 143 14 64 127 13 54 107 11
39 79 8 123 111 111 123 111 111 123 110 110 122 110 110 122 110 110
122 109 109 121 109 109 121 109 109 121 109 109 120 108 108 120 108
108 120 108 108 119 107 107 119 107 107 119 107 107
150 135 135 150 135 135 150 135 135 150 135 135 150 135 135 149 134
134 149 134 134 149 134 134 149 134 134 149 134 134 148 134 134 148
133 133 148 133 133 148 133 133 147 133 133 147 132 132 147 132 132
147 132 132 146 132 132 146 132 132 146 131 131 146 131 131 145 131
131 145 131 131 145 130 130 145 130 130 144 130 130 13 134 67 14 142
71 14 144 72 14 145 72 14 144 72 14 142 71 14 139 70 14 136 68 13 133
66 13 129 64 12 124 62 12 120 60 11 114 57 11 109 54 10 103 52 10 97
48 9 90 45 8 84 42 8 76 38 7 69 34 6 60 30 5 52 26 4 43 21 3 33 16 3
26 13 3 26 13 3 26 13 3 26 13 3 26 13 3 26 13 135 122 122 135 121 121
135 121 121 134 121 121 134 121 121 134 120 120 133 120 120 133 120
120 133 119 119 132 119 119 132 119 119 132 119 119 131 118 118 131
118 118 92 185 18 98 196 20 100 200 20 100 200 20 99 198 20 97 194 19
94 189 19 91 181 18 86 172 17 81 162 16 75 150 15 68 135 14 59 118 12
48 97 10 34 67 7 126 113 113 126 113 113 125 113 113 125 113 113 125
112 112 125 112 112 124 112 112 124 111 111 124 111 111 123 111 111
123 111 111 123 110 110 122 110 110 122 110 110
154 138 138 153 138 138 153 138 138 153 138 138 153 137 137 153 137
137 152 137 137 152 137 137 152 137 137 152 136 136 151 136 136 151
136 136 151 136 136 151 136 136 150 135 135 150 135 135 150 135 135
150 135 135 149 135 135 149 134 134 149 134 134 149 134 134 148 134
134 148 133 133 148 133 133 148 133 133 147 133 133 12 118 59 13 131
66 14 135 68 14 136 68 14 136 68 13 134 67 13 132 66 13 129 65 13 126
63 12 122 61 12 117 59 11 113 56 11 108 54 10 102 51 10 96 48 9 90 45
8 84 42 8 77 38 7 69 35 6 62 31 5 53 27 4 45 22 4 35 18 3 26 13 3 26
13 3 26 13 3 26 13 3 26 13 3 26 13 3 26 13 138 124 124 138 124 124
137 124 124 137 123 123 137 123 123 137 123 123 136 123 123 136 122
122 136 122 122 135 122 122 135 121 121 135 121 121 134 121 121 89
179 18 97 194 19 100 201 20 102 203 20 101 203 20 100 200 20 98 196
20 95 190 19 92 183 18 87 175 17 82 164 16 76 153 15 70 139 14 62 124
12 52 105 10 41 81 8 23 46 5 129 116 116 128 116 116 128 115 115 128
115 115 127 115 115 127 114 114 127 114 114 126 114 114 126 114 114
126 113 113 126 113 113 125 113 113 125 112 112
156 141 141 156 141 141 156 140 140 156 140 140 155 140 140 155 140
140 155 140 140 155 139 139 155 139 139 154 139 139 154 139 139 154
138 138 154 138 138 153 138 138 153 138 138 153 138 138 153 137 137
152 137 137 152 137 137 152 137 137 152 136 136 151 136 136 151 136
136 151 136 136 150 135 135 150 135 135 150 135 135 150 135 135 12
118 59 12 125 62 13 127 63 13 127 63 13 126 63 12 124 62 12 121 61 12
118 59 11 114 57 11 110 55 11 105 53 10 100 50 9 95 47 9 89 44 8 83
41 8 76 38 7 69 35 6 62 31 5 54 27 5 46 23 4 37 18 3 27 14 3 26 13 3
26 13 3 26 13 3 26 13 3 26 13 3 26 13 141 127 127 141 127 127 140 126
126 140 126 126 140 126 126 139 125 125 26 23 23 26 23 23 26 23 23 26
23 23 26 23 23 26 23 23 26 23 23 79 157 16 93 187 19 99 198 20 101
202 20 102 204 20 101 203 20 100 200 20 98 196 20 95 190 19 91 183 18
87 174 17 82 165 16 77 153 15 70 140 14 63 126 13 54 108 11 44 87 9
30 60 6 13 26 3 131 118 118 131 118 118 130 117 117 130 117 117 130
117 117 129 117 117 129 116 116 129 116 116 129 116 116 128 115 115
128 115 115 128 115 115
159 143 143 159 143 143 158 142 142 158 142 142 158 142 142 158 142
142 157 142 142 157 141 141 157 141 141 157 141 141 156 141 141 156
141 141 156 140 140 156 140 140 155 140 140 155 140 140 155 139 139
155 139 139 154 139 139 154 139 139 154 138 138 153 138 138 153 138
138 153 138 138 153 137 137 152 137 137 152 137 137 152 137 137 10 98
49 11 112 56 12 116 58 12 117 59 12 117 58 12 115 58 11 113 56 11 109
55 11 106 53 10 102 51 10 97 49 9 92 46 9 87 43 8 81 40 7 75 37 7 68
34 6 61 31 5 54 27 5 46 23 4 37 19 3 28 14 3 26 13 3 26 13 3 26 13 3
26 13 3 26 13 3 26 13 3 26 13 26 23 23 26 23 23 26 23 23 26 23 23 26
23 23 26 23 23 26 23 23 26 23 23 26 23 23 26 23 23 26 23 23 26 23 23
26 23 23 85 169 17 94 189 19 99 197 20 101 201 20 101 202 20 100 201
20 105 204 26 100 196 22 94 188 19 90 181 18 86 172 17 81 163 16 76
152 15 70 139 14 63 125 13 54 109 11 44 89 9 32 64 6 14 28 3 133 120
120 133 120 120 133 119 119 132 119 119 132 119 119 132 119 119 132
118 118 131 118 118 131 118 118 131 118 118 130 117 117 130 117 117
161 145 145 161 145 145 160 144 144 160 144 144 160 144 144 160 144
144 159 143 143 159 143 143 159 143 143 159 143 143 158 143 143 158
142 142 158 142 142 158 142 142 157 142 142 157 141 141 157 141 141
157 141 141 157 126 16 149 119 15 132 106 13 110 88 11 78 62 8 155
139 139 155 139 139 154 139 139 154 139 139 154 138 138 154 138 138 9
95 47 10 103 52 11 106 53 11 106 53 11 105 53 10 103 52 10 100 50 10
97 48 9 93 46 9 88 44 8 84 42 8 78 39 7 72 36 7 66 33 6 60 30 5 53 26
4 45 22 4 37 18 3 28 14 3 26 13 3 26 13 3 26 13 3 26 13 3 26 13 3 26
13 3 26 13 26 23 23 26 23 23 26 23 23 26 23 23 26 23 23 26 23 23 26
23 23 26 23 23 26 23 23 26 23 23 26 23 23 26 23 23 26 23 23 26 23 23
85 171 17 93 187 19 97 194 19 99 198 20 99 198 20 99 197 20 128 225
50 103 198 27 92 184 18 88 177 18 84 169 17 80 159 16 74 148 15 68
136 14 61 122 12 53 107 11 44 88 9 32 65 6 17 34 3 136 122 122 135
122 122 135 121 121 135 121 121 134 121 121 134 121 121 134 120 120
133 120 120 133 120 120 133 120 120 133 119 119 132 119 119
163 146 146 162 146 146 162 146 146 162 146 146 162 146 146 161 145
145 161 145 145 161 145 145 161 145 145 160 144 144 160 144 144 160
144 144 160 144 144 159 143 143 159 143 143 159 143 143 187 150 19
185 148 19 175 140 17 160 128 16 143 114 14 122 98 12 99 79 10 70 56
7 26 20 3 156 141 141 156 140 140 156 140 140 155 140 140 155 139 139
9 86 43 9 92 46 9 94 47 9 94 47 9 93 46 9 90 45 9 87 44 8 83 42 8 79
40 7 74 37 7 69 34 6 63 32 6 57 28 5 50 25 4 43 22 4 35 18 3 27 14 3
26 13 3 26 13 3 26 13 3 26 13 3 26 13 3 26 13 3 26 13 26 23 23 26 23
23 26 23 23 26 23 23 26 23 23 26 23 23 26 23 23 26 23 23 26 23 23 26
23 23 26 23 23 26 23 23 26 23 23 26 23 23 26 23 23 83 167 17 91 182
18 95 189 19 96 192 19 97 193 19 96 192 19 94 189 19 92 184 18 89 179
18 86 172 17 82 164 16 77 154 15 72 144 14 66 132 13 59 118 12 51 103
10 42 84 8 31 62 6 17 33 3 138 124 124 137 124 124 137 123 123 137
123 123 136 123 123 136 122 122 136 122 122 135 122 122 135 122 122
135 121 121 135 121 121 134 121 121
164 148 148 164 148 148 164 147 147 164 147 147 163 147 147 163 147
147 163 146 146 163 146 146 162 146 146 162 146 146 162 146 146 161
145 145 161 145 145 161 145 145 161 145 145 199 159 20 198 158 20 189
151 19 176 141 18 161 128 16 143 114 14 123 98 12 101 81 10 75 60 7
44 35 4 26 20 3 157 142 142 157 141 141 157 141 141 157 141 141 156
141 141 7 74 37 8 80 40 8 81 41 8 81 40 8 79 39 8 76 38 7 73 36 7 69
34 6 64 32 6 59 29 5 53 26 5 47 23 4 40 20 3 33 16 3 26 13 3 26 13 3
26 13 3 26 13 3 26 13 3 26 13 3 26 13 3 26 13 26 23 23 26 23 23 26 23
23 26 23 23 26 23 23 26 23 23 26 23 23 26 23 23 26 23 23 26 23 23 26
23 23 26 23 23 26 23 23 26 23 23 26 23 23 26 23 23 80 160 16 87 175
17 91 182 18 93 185 19 93 186 19 92 185 18 91 182 18 89 178 18 86 172
17 83 165 17 79 157 16 74 148 15 69 138 14 63 126 13 56 112 11 48 97
10 39 79 8 29 57 6 15 29 3 13 26 3 139 125 125 139 125 125 138 125
125 138 124 124 138 124 124 138 124 124 137 124 124 137 123 123 137
123 123 136 123 123 136 123 123
166 149 149 165 149 149 165 149 149 165 148 148 165 148 148 164 148
148 164 148 148 164 147 147 164 147 147 163 147 147 163 147 147 163
147 147 163 146 146 162 146 146 200 160 20 203 163 20 196 157 20 186
148 19 172 138 17 157 125 16 139 111 14 119 95 12 97 78 10 73 58 7 44
35 4 26 20 3 159 143 143 159 143 143 158 142 142 158 142 142 158 142
142 157 142 142 6 59 30 6 65 32 7 66 33 7 66 33 6 64 32 6 61 30 6 57
28 5 52 26 5 47 24 4 41 21 4 35 18 3 28 14 3 26 13 3 26 13 3 26 13 3
26 13 3 26 13 3 26 13 3 26 13 3 26 13 26 23 23 26 23 23 26 23 23 26
23 23 26 23 23 26 23 23 26 23 23 26 23 23 26 23 23 26 23 23 26 23 23
26 23 23 26 23 23 26 23 23 26 23 23 26 23 23 26 23 23 74 149 15 82
165 16 86 173 17 88 177 18 89 178 18 88 176 18 87 174 17 85 169 17 82
164 16 79 157 16 75 149 15 70 140 14 65 130 13 59 118 12 52 105 10 45
89 9 36 71 7 25 50 5 13 26 3 13 26 3 141 127 127 140 126 126 140 126
126 140 126 126 140 126 126 139 125 125 139 125 125 139 125 125 139
125 125 138 124 124 138 124 124
167 150 150 167 150 150 166 150 150 166 150 150 166 149 149 166 149
149 165 149 149 165 149 149 165 148 148 165 148 148 164 148 148 164
148 148 164 147 147 164 147 147 202 162 20 199 160 20 191 153 19 193
157 32 165 132 17 150 120 15 132 106 13 113 90 11 91 73 9 67 53 7 39
32 4 26 20 3 26 20 3 160 144 144 159 144 144 159 143 143 159 143 143
159 143 143 158 143 143 4 38 19 5 47 24 5 49 24 5 48 24 5 46 23 4 43
21 4 39 19 3 34 17 3 28 14 3 26 13 3 26 13 3 26 13 3 26 13 3 26 13 3
26 13 3 26 13 3 26 13 3 26 13 26 23 23 26 23 23 26 23 23 26 23 23 26
23 23 26 23 23 26 23 23 26 23 23 26 23 23 26 23 23 26 23 23 26 23 23
26 23 23 26 23 23 26 23 23 26 23 23 26 23 23 26 23 23 66 133 13 76
152 15 81 161 16 83 166 17 84 167 17 83 167 17 82 164 16 80 160 16 77
155 15 74 148 15 70 140 14 66 131 13 60 121 12 55 109 11 48 96 10 40
80 8 31 62 6 20 40 4 13 26 3 143 128 128 142 128 128 142 128 128 142
128 128 141 127 127 141 127 127 141 127 127 141 127 127 140 126 126
140 126 126 140 126 126 140 126 126
168 151 151 168 151 151 167 151 151 167 150 150 167 150 150 167 150
150 166 150 150 166 150 150 166 149 149 166 149 149 165 149 149 165
149 149 165 148 148 188 151 19 197 157 20 192 154 19 183 146 18 173
139 20 157 125 16 141 113 14 123 98 12 104 83 10 82 66 8 58 47 6 31
25 3 26 20 3 26 20 3 161 145 145 161 145 145 160 144 144 160 144 144
160 144 144 160 144 144 159 143 143 159 143 143 3 26 13 3 27 14 3 28
14 3 26 13 3 26 13 3 26 13 3 26 13 3 26 13 3 26 13 3 26 13 3 26 13 3
26 13 3 26 13 3 26 13 26 23 23 26 23 23 26 23 23 26 23 23 26 23 23 26
23 23 26 23 23 26 23 23 26 23 23 26 23 23 26 23 23 26 23 23 26 23 23
26 23 23 26 23 23 26 23 23 26 23 23 26 23 23 26 23 23 150 135 135 54
109 11 68 136 14 74 148 15 77 153 15 78 155 16 77 155 15 76 153 15 75
149 15 72 144 14 69 137 14 65 130 13 60 121 12 55 110 11 49 98 10 42
85 8 34 69 7 25 50 5 14 27 3 13 26 3 26 23 23 26 23 23 143 129 129
143 129 129 143 129 129 143 128 128 142 128 128 142 128 128 142 128
128 142 127 127 141 127 127 141 127 127
169 152 152 169 152 152 168 152 152 168 151 151 168 151 151 168 151
151 167 151 151 167 150 150 167 150 150 167 150 150 166 150 150 166
150 150 166 149 149 183 147 18 187 150 19 182 146 18 172 138 17 160
128 16 146 117 15 130 104 13 112 90 11 93 74 9 71 57 7 47 38 5 26 20
3 26 20 3 26 20 3 162 146 146 162 145 145 161 145 145 161 145 145 161
145 145 161 145 145 160 144 144 160 144 144 160 144 144 159 144 144
26 23 23 3 26 13 3 26 13 3 26 13 3 26 13 3 26 13 3 26 13 3 26 13 3 26
13 26 23 23 26 23 23 26 23 23 26 23 23 26 23 23 26 23 23 26 23 23 26
23 23 26 23 23 26 23 23 26 23 23 26 23 23 26 23 23 26 23 23 26 23 23
26 23 23 26 23 23 152 137 137 152 137 137 152 136 136 151 136 136 151
136 136 151 136 136 150 135 135 58 115 12 65 131 13 69 138 14 71 141
14 71 141 14 70 140 14 68 136 14 66 131 13 63 125 13 59 117 12 54 108
11 49 98 10 43 86 9 36 72 7 28 56 6 18 36 4 13 26 3 13 26 3 26 23 23
26 23 23 26 23 23 26 23 23 26 23 23 26 23 23 26 23 23 143 129 129 143
129 129 143 129 129 143 128 128 142 128 128
170 153 153 170 153 153 169 152 152 169 152 152 169 152 152 169 152
152 168 151 151 168 151 151 168 151 151 168 151 151 167 151 151 167
150 150 167 150 150 171 137 17 175 140 18 169 136 17 160 128 16 148
118 15 133 107 13 117 94 12 100 80 10 80 64 8 58 47 6 34 28 3 26 20 3
26 20 3 26 20 3 163 147 147 163 146 146 162 146 146 162 146 146 162
146 146 162 145 145 161 145 145 161 145 145 161 145 145 160 144 144
160 144 144 26 23 23 26 23 23 26 23 23 26 23 23 26 23 23 26 23 23 26
23 23 26 23 23 26 23 23 26 23 23 26 23 23 26 23 23 26 23 23 26 23 23
26 23 23 26 23 23 26 23 23 26 23 23 26 23 23 26 23 23 155 139 139 154
139 139 154 139 139 154 138 138 153 138 138 153 138 138 153 138 138
153 137 137 152 137 137 152 137 137 152 137 137 152 136 136 40 79 8
54 108 11 60 119 12 62 124 12 63 125 13 62 125 12 61 122 12 58 117 12
55 111 11 52 103 10 47 94 9 42 84 8 36 71 7 28 57 6 20 39 4 13 26 3
13 26 3 26 23 23 26 23 23 26 23 23 26 23 23 26 23 23 26 23 23 26 23
23 26 23 23 26 23 23 26 23 23 144 130 130 144 130 130 144 129 129
171 153 153 170 153 153 170 153 153 170 153 153 170 153 153 169 152
152 169 152 152 169 152 152 169 152 152 168 151 151 168 151 151 168
151 151 168 151 151 153 122 15 160 128 16 155 124 15 145 116 15 133
107 13 119 95 12 103 82 10 85 68 9 65 52 7 43 35 4 26 20 3 26 20 3 26
20 3 26 20 3 164 147 147 163 147 147 163 147 147 163 147 147 163 146
146 162 146 146 26 23 23 162 146 146 162 145 145 161 145 145 161 145
145 161 145 145 161 145 145 160 144 144 160 144 144 160 144 144 160
144 144 159 143 143 159 143 143 159 143 143 158 143 143 158 142 142
158 142 142 158 142 142 157 142 142 157 141 141 157 141 141 157 141
141 156 141 141 156 140 140 156 140 140 156 140 140 155 140 140 155
140 140 155 139 139 154 139 139 154 139 139 154 139 139 154 138 138
153 138 138 153 138 138 153 138 138 153 137 137 152 137 137 37 74 7
47 95 9 52 103 10 53 106 11 53 106 11 52 104 10 50 100 10 47 94 9 43
87 9 39 78 8 33 67 7 27 54 5 19 38 4 13 26 3 13 26 3 13 26 3 26 23 23
26 23 23 26 23 23 26 23 23 26 23 23 26 23 23 26 23 23 26 23 23 26 23
23 26 23 23 145 131 131 145 131 131 145 130 130
171 154 154 171 154 154 171 154 154 170 153 153 170 153 153 170 153
153 170 153 153 170 153 153 169 152 152 169 152 152 169 152 152 169
152 152 168 151 151 168 151 151 140 112 14 137 110 14 128 103 13 117
93 12 103 82 10 86 69 9 68 55 7 48 39 5 26 21 3 26 20 3 26 20 3 26 20
3 26 23 23 26 23 23 26 23 23 26 23 23 26 23 23 26 23 23 26 23 23 26
23 23 26 23 23 26 23 23 26 23 23 162 146 146 162 145 145 161 145 145
161 145 145 161 145 145 161 145 145 160 144 144 160 144 144 160 144
144 160 144 144 159 143 143 159 143 143 159 143 143 159 143 143 158
142 142 158 142 142 158 142 142 158 142 142 157 142 142 157 141 141
157 141 141 156 141 141 156 141 141 156 140 140 156 140 140 155 140
140 155 140 140 155 139 139 155 139 139 154 139 139 154 139 139 154
139 139 154 138 138 153 138 138 153 138 138 28 55 6 37 75 7 41 82 8
42 84 8 42 83 8 40 80 8 37 74 7 33 67 7 29 57 6 23 46 5 16 32 3 13 26
3 13 26 3 13 26 3 26 23 23 26 23 23 26 23 23 26 23 23 26 23 23 26 23
23 26 23 23 26 23 23 26 23 23 26 23 23 26 23 23 147 132 132 146 132
132 146 131 131
172 155 155 172 154 154 171 154 154 171 154 154 171 154 154 171 154
154 170 153 153 170 153 153 170 153 153 170 153 153 169 152 152 169
152 152 169 152 152 169 152 152 114 91 11 116 92 12 108 87 11 97 78
10 84 67 8 68 54 7 49 39 5 29 23 3 26 20 3 26 20 3 26 20 3 26 20 3 26
23 23 26 23 23 26 23 23 26 23 23 26 23 23 26 23 23 26 23 23 26 23 23
26 23 23 26 23 23 163 147 147 163 146 146 162 146 146 162 146 146 162
146 146 162 145 145 161 145 145 161 145 145 161 145 145 161 145 145
160 144 144 160 144 144 160 144 144 160 144 144 159 143 143 159 143
143 159 143 143 159 143 143 158 143 143 158 142 142 158 142 142 158
142 142 157 142 142 157 141 141 157 141 141 157 141 141 156 141 141
156 140 140 156 140 140 156 140 140 155 140 140 155 140 140 155 139
139 155 139 139 154 139 139 154 139 139 154 138 138 154 138 138 23 46
5 27 54 5 28 56 6 27 54 5 24 49 5 21 41 4 16 32 3 13 26 3 13 26 3 13
26 3 26 23 23 26 23 23 26 23 23 26 23 23 26 23 23 26 23 23 26 23 23
26 23 23 26 23 23 26 23 23 26 23 23 148 133 133 148 133 133 148 133
133 147 133 133 147 132 132
172 155 155 172 155 155 172 155 155 172 155 155 171 154 154 171 154
154 171 154 154 171 154 154 170 153 153 170 153 153 170 153 153 170
153 153 170 153 153 169 152 152 169 152 152 86 69 9 84 67 8 74 59 7
61 49 6 45 36 5 27 21 3 26 20 3 26 20 3 26 20 3 26 20 3 26 23 23 26
23 23 26 23 23 26 23 23 26 23 23 26 23 23 26 23 23 26 23 23 26 23 23
164 148 148 164 147 147 164 147 147 163 147 147 163 147 147 163 147
147 163 146 146 162 146 146 162 146 146 162 146 146 162 145 145 161
145 145 161 145 145 161 145 145 161 145 145 160 144 144 160 144 144
160 144 144 160 144 144 159 143 143 159 143 143 159 143 143 159 143
143 158 143 143 158 142 142 158 142 142 158 142 142 157 142 142 157
141 141 157 141 141 157 141 141 156 141 141 156 141 141 156 140 140
156 140 140 155 140 140 155 140 140 155 139 139 155 139 139 154 139
139 154 139 139 26 23 23 13 26 3 13 26 3 13 26 3 13 26 3 13 26 3 13
26 3 26 23 23 26 23 23 26 23 23 26 23 23 26 23 23 26 23 23 26 23 23
26 23 23 26 23 23 26 23 23 26 23 23 150 135 135 149 134 134 149 134
134 149 134 134 149 134 134 148 134 134 148 133 133
173 156 156 173 155 155 172 155 155 172 155 155 172 155 155 172 155
155 171 154 154 171 154 154 171 154 154 171 154 154 171 153 153 170
153 153 170 153 153 170 153 153 170 153 153 169 152 152 45 36 4 43 34
4 32 25 3 26 20 3 26 20 3 26 20 3 26 20 3 26 23 23 26 23 23 26 23 23
26 23 23 26 23 23 26 23 23 26 23 23 26 23 23 165 149 149 165 149 149
165 148 148 165 148 148 164 148 148 164 148 148 164 148 148 164 147
147 164 147 147 163 147 147 163 147 147 163 146 146 163 146 146 162
146 146 162 146 146 162 146 146 162 145 145 161 145 145 161 145 145
161 145 145 161 145 145 160 144 144 160 144 144 160 144 144 160 144
144 159 143 143 159 143 143 159 143 143 159 143 143 158 143 143 158
142 142 158 142 142 158 142 142 157 142 142 157 141 141 157 141 141
157 141 141 156 141 141 156 141 141 156 140 140 156 140 140 155 140
140 155 140 140 155 139 139 155 139 139 155 139 139 154 139 139 26 23
23 26 23 23 26 23 23 26 23 23 26 23 23 26 23 23 26 23 23 26 23 23 26
23 23 26 23 23 152 136 136 151 136 136 151 136 136 151 136 136 151
136 136 150 135 135 150 135 135 150 135 135 150 135 135 150 135 135
149 134 134 149 134 134
173 156 156 173 156 156 173 156 156 173 155 155 172 155 155 172 155
155 172 155 155 172 155 155 171 154 154 171 154 154 171 154 154 171
154 154 171 153 153 170 153 153 170 153 153 170 153 153 170 153 153
169 152 152 26 23 23 26 23 23 26 23 23 26 23 23 26 23 23 26 23 23 26
23 23 26 23 23 26 23 23 167 150 150 167 150 150 167 150 150 166 150
150 166 149 149 166 149 149 166 149 149 165 149 149 165 149 149 165
148 148 165 148 148 164 148 148 164 148 148 164 147 147 164 147 147
163 147 147 163 147 147 163 147 147 163 146 146 162 146 146 162 146
146 162 146 146 162 146 146 161 145 145 161 145 145 161 145 145 161
145 145 161 144 144 160 144 144 160 144 144 160 144 144 160 144 144
159 143 143 159 143 143 159 143 143 159 143 143 158 143 143 158 142
142 158 142 142 158 142 142 157 142 142 157 141 141 157 141 141 157
141 141 156 141 141 156 141 141 156 140 140 156 140 140 156 140 140
155 140 140 155 140 140 155 139 139 155 139 139 154 139 139 154 139
139 154 138 138 154 138 138 153 138 138 153 138 138 153 138 138 153
137 137 152 137 137 152 137 137 152 137 137 152 137 137 152 136 136
151 136 136 151 136 136 151 136 136 151 136 136 150 135 135 150 135
135 150 135 135
174 156 156 174 156 156 173 156 156 173 156 156 173 156 156 173 155
155 172 155 155 172 155 155 172 155 155 172 155 155 171 154 154 171
154 154 171 154 154 171 154 154 171 153 153 170 153 153 170 153 153
170 153 153 170 153 153 169 152 152 169 152 152 169 152 152 169 152
152 168 152 152 168 151 151 168 151 151 168 151 151 168 151 151 167
151 151 167 150 150 167 150 150 167 150 150 166 150 150 166 149 149
166 149 149 166 149 149 165 149 149 165 149 149 165 148 148 165 148
148 164 148 148 164 148 148 164 148 148 164 147 147 164 147 147 163
147 147 163 147 147 163 147 147 163 146 146 162 146 146 162 146 146
162 146 146 162 145 145 161 145 145 161 145 145 161 145 145 161 145
145 160 144 144 160 144 144 160 144 144 160 144 144 160 144 144 159
143 143 159 143 143 159 143 143 159 143 143 158 143 143 158 142 142
158 142 142 158 142 142 157 142 142 157 141 141 157 141 141 157 141
141 156 141 141 156 141 141 156 140 140 156 140 140 156 140 140 155
140 140 155 140 140 155 139 139 155 139 139 154 139 139 154 139 139
154 139 139 154 138 138 154 138 138 153 138 138 153 138 138 153 138
138 153 137 137 152 137 137 152 137 137 152 137 137 152 137 137 151
136 136 151 136 136 151 136 136 151 136 136
174 157 157 174 157 157 174 156 156 173 156 156 173 156 156 173 156
156 173 156 156 173 155 155 172 155 155 172 155 155 172 155 155 172
154 154 171 154 154 171 154 154 171 154 154 171 154 154 171 153 153
170 153 153 170 153 153 170 153 153 170 153 153 169 152 152 169 152
152 169 152 152 169 152 152 168 152 152 168 151 151 168 151 151 168
151 151 168 151 151 167 151 151 167 150 150 167 150 150 167 150 150
166 150 150 166 150 150 166 149 149 166 149 149 165 149 149 165 149
149 165 148 148 165 148 148 165 148 148 164 148 148 164 148 148 164
147 147 164 147 147 163 147 147 163 147 147 163 147 147 163 146 146
162 146 146 162 146 146 162 146 146 162 146 146 162 145 145 161 145
145 161 145 145 161 145 145 161 145 145 160 144 144 160 144 144 160
144 144 160 144 144 159 144 144 159 143 143 159 143 143 159 143 143
159 143 143 158 142 142 158 142 142 158 142 142 158 142 142 157 142
142 157 141 141 157 141 141 157 141 141 156 141 141 156 141 141 156
140 140 156 140 140 156 140 140 155 140 140 155 140 140 155 139 139
155 139 139 154 139 139 154 139 139 154 139 139 154 138 138 154 138
138 153 138 138 153 138 138 153 138 138 153 137 137 152 137 137 152
137 137 152 137 137 152 137 137 152 136 136
174 157 157 174 157 157 174 157 157 174 156 156 174 156 156 173 156
156 173 156 156 173 156 156 173 155 155 172 155 155 172 155 155 172
155 155 172 155 155 172 154 154 171 154 154 171 154 154 171 154 154
171 154 154 170 153 153 170 153 153 170 153 153 170 153 153 170 153
153 169 152 152 169 152 152 169 152 152 169 152 152 168 152 152 168
151 151 168 151 151 168 151 151 168 151 151 167 151 151 167 150 150
167 150 150 167 150 150 166 150 150 166 150 150 166 149 149 166 149
149 165 149 149 165 149 149 165 149 149 165 148 148 165 148 148 164
148 148 164 148 148 164 147 147 164 147 147 163 147 147 163 147 147
163 147 147 163 146 146 163 146 146 162 146 146 162 146 146 162 146
146 162 145 145 161 145 145 161 145 145 161 145 145 161 145 145 160
144 144 160 144 144 160 144 144 160 144 144 160 144 144 159 143 143
159 143 143 159 143 143 159 143 143 158 143 143 158 142 142 158 142
142 158 142 142 158 142 142 157 142 142 157 141 141 157 141 141 157
141 141 156 141 141 156 141 141 156 140 140 156 140 140 156 140 140
155 140 140 155 140 140 155 139 139 155 139 139 155 139 139 154 139
139 154 139 139 154 138 138 154 138 138 153 138 138 153 138 138 153
138 138 153 137 137 153 137 137 152 137 137

